<?xml version="1.0" encoding="UTF-8" standalone="no"?>
<!-- Created with Inkscape (http://www.inkscape.org/) -->

<svg
   version="1.1"
   id="svg2708"
   width="336.49371"
   height="355.73242"
   viewBox="0 0 336.49372 355.73241"
   sodipodi:docname="Bird4c.svg"
   inkscape:version="1.2.2 (732a01da63, 2022-12-09, custom)"
   xmlns:inkscape="http://www.inkscape.org/namespaces/inkscape"
   xmlns:sodipodi="http://sodipodi.sourceforge.net/DTD/sodipodi-0.dtd"
   xmlns="http://www.w3.org/2000/svg"
   xmlns:svg="http://www.w3.org/2000/svg">
  <defs
     id="defs2712" />
  <sodipodi:namedview
     id="namedview2710"
     pagecolor="#ffffff"
     bordercolor="#000000"
     borderopacity="0.25"
     inkscape:showpageshadow="2"
     inkscape:pageopacity="0.0"
     inkscape:pagecheckerboard="0"
     inkscape:deskcolor="#d1d1d1"
     showgrid="false"
     inkscape:zoom="0.95169365"
     inkscape:cx="65.147014"
     inkscape:cy="298.41536"
     inkscape:window-width="1920"
     inkscape:window-height="1031"
     inkscape:window-x="0"
     inkscape:window-y="25"
     inkscape:window-maximized="1"
     inkscape:current-layer="layer1" />
  <g
     inkscape:groupmode="layer"
     id="layer1"
     inkscape:label="Layer">
    <path
       id="path3189-3"
       style="fill:#f2f2f2;stroke-width:1.91794"
       d="M 93.685547,0.00586 C 81.51117,0.2321 68.53552,6.73593 61.26953,17.63086 c -3.16459,4.74512 -6.28806,8.64487 -6.9414,8.66797 -0.65335,0.0232 -5.79922,3.71019 -11.43555,8.19336 l -10.24805,8.15234 15.95703,1.32813 c 20.28396,1.68846 23.9774,4.46231 22.76367,17.09375 -0.59152,6.15614 -3.51198,13.13937 -9.6289,23.01757 -17.95545,28.99619 -21.12121,51.92424 -10.84766,78.56446 7.01452,18.18924 19.60747,32.97607 39.62891,46.53125 23.33792,15.80053 32.7587,26.9294 46.94336,55.45508 8.23133,16.55336 8.4753,14.36471 -3.84766,34.55273 -9.56366,15.6676 -15.27498,18.67969 -35.414061,18.67969 -12.167499,0 -16.928959,0.73215 -18.708989,2.87695 -1.97454,2.3792 -8.92746,2.87695 -40.1914,2.87695 -20.7923,0 -38.28813,0.48344 -38.87891,1.07422 -2.18553,2.18552 4.42318,11.63222 13.67383,19.54492 l 9.5293,8.1504 H 61.0332 c 25.0115,0 37.840146,0.69501 38.707034,2.09765 0.830336,1.34352 4.146486,1.61047 9.222656,0.74219 4.35973,-0.74575 17.63669,-1.31994 29.50391,-1.27734 28.76491,0.10338 23.5117,0.14657 96.83398,-0.81446 l 64.70899,-0.84765 11.72656,-11.58008 c 6.44902,-6.3694 11.21232,-12.09432 10.58594,-12.72071 -0.62639,-0.62638 -0.1603,-2.31735 1.03515,-3.75781 1.82926,-2.20418 -7.0197,-2.59641 -55.85351,-2.47265 -50.39154,0.12758 -58.46768,-0.25241 -61.38282,-2.89063 -1.84628,-1.67085 -7.78999,-3.56329 -13.20898,-4.20508 -12.04824,-1.42694 -12.10881,-1.89818 -3.14063,-24.74219 7.68039,-19.56367 7.75038,-20.23833 3.73243,-35.74414 -1.63897,-6.32504 -2.71688,-12.69514 -2.39649,-14.15625 1.71565,-7.82366 56.27038,39.13176 73.66406,63.40235 4.10891,5.73345 8.16013,10.46498 9.00196,10.51562 3.88414,0.23357 23.29053,-14.30286 36.12109,-27.05664 13.2001,-13.12109 26.59961,-33.49776 26.59961,-40.45117 0,-2.21201 -4.19849,-3.06236 -19.66016,-3.98633 -10.81235,-0.64616 -25.26838,-2.85523 -32.125,-4.9082 -26.0483,-7.79924 -29.94932,-10.24267 -19.6582,-12.31055 6.07359,-1.2204 18.04747,-8.88037 19.1543,-12.2539 0.42509,-1.29559 -6.15939,-5.73529 -15.19531,-10.24414 -24.0841,-12.01772 -37.10459,-22.26547 -63.75,-50.17969 -28.22076,-29.5646 -40.14105,-38.44509 -66.58008,-49.60156 -22.78042,-9.61265 -24.46521,-11.83668 -21.42383,-28.26954 1.11321,-6.01474 3.42813,-15.94166 5.14453,-22.05859 6.513,-23.21123 1.96055,-40.03293 -13.2207,-48.85351 C 104.58831,1.09795 99.219356,-0.09698 93.685547,0.00586 Z M 156.08203,246.9043 c 4.24786,0 19.30469,21.07273 19.30469,27.01757 0,8.15623 -7.97006,33.95319 -11.74024,38 -2.71403,2.91317 -6.08845,4.0293 -12.19531,4.0293 -4.64353,0 -8.90312,-0.7454 -9.46484,-1.6543 -0.56171,-0.90886 3.79724,-7.93061 9.68554,-15.60546 9.25129,-12.05817 10.54624,-14.76501 9.53321,-19.92383 -0.64479,-3.28348 -2.35955,-11.79569 -3.81055,-18.91602 -1.4509,-7.12033 -2.04155,-12.94726 -1.3125,-12.94726 z" />
    <path
       style="fill:#008080;stroke-width:1.91794"
       d="m 265.53007,345.75491 c 19.515,-0.36764 35.56249,-0.75105 35.66105,-0.85201 0.0986,-0.10099 3.91909,-4.61884 8.49001,-10.03965 l 8.31075,-9.85606 -69.27486,0.93293 c -77.81565,1.04797 -79.08377,1.26781 -79.08377,13.70889 0,3.49191 0.6226,6.97152 1.38358,7.73249 0.76096,0.76097 14.35433,0.85669 30.20751,0.21277 15.85312,-0.64397 44.79073,-1.47165 64.30573,-1.8393 z"
       id="path3224" />
    <path
       style="fill:#008080;stroke-width:1.91794"
       d="m 154.28976,340.03302 v -8.4981 l -7.19226,1.06886 c -3.95575,0.58784 -9.10381,2.25974 -11.44015,3.71525 -5.46443,3.40436 -5.66431,3.36948 -6.85856,-1.19733 -1.25751,-4.80872 -5.70401,-3.38855 -10.02154,3.20082 -5.5127,8.41348 -2.97594,9.89991 17.17086,10.06149 l 18.34165,0.14715 z"
       id="path3222" />
    <path
       style="fill:#008080;stroke-width:1.91794"
       d="m 101.74283,339.83673 4.03218,-8.54311 h -6.92174 c -3.806968,0 -9.85717,0.84185 -13.4449,1.87082 -5.23219,1.50058 -6.95823,1.27576 -8.72166,-1.13587 -1.83783,-2.51336 -7.45523,-3.02695 -34.2394,-3.13037 -17.62248,-0.068 -32.58682,0.42222 -33.25409,1.08951 -0.66727,0.66726 -0.12149,2.52868 1.21286,4.13645 1.9345,2.33092 7.23629,2.92326 26.16545,2.92326 13.05664,0 23.73936,0.77368 23.73936,1.71931 0,0.94561 -9.05997,1.45587 -20.13326,1.13389 -19.73381,-0.57376 -24.40716,0.48407 -19.6351,4.44455 3.45135,2.86435 12.0376,3.56916 46.48113,3.81534 l 30.686982,0.21937 z"
       id="path3220" />
    <path
       style="fill:#ffcc00;stroke-width:1.91794"
       d="m 60.79037,31.49644 c 3.95574,-1.23899 7.19226,-2.90565 7.19226,-3.70367 0,-2.96911 -6.95246,-1.27723 -14.38452,3.50047 -4.21946,2.71247 -5.9456,4.37471 -3.83587,3.69385 2.10973,-0.68086 7.07239,-2.25165 11.02813,-3.49065 z"
       id="path3276" />
    <path
       style="fill:#ffcc00;stroke-width:1.91794"
       d="m 64.83232,37.46194 c 3.14549,-4.99503 0.65879,-5.7354 -7.58334,-2.25778 -6.60801,2.78812 -7.03652,3.34068 -3.65087,4.70772 5.31752,2.14708 8.8204,1.38318 11.23421,-2.44994 z"
       id="path3274" />
    <path
       style="fill:#ffcc00;stroke-width:1.91794"
       d="m 165.80255,346.64678 c -2.9783,-5.56501 -2.28462,-12.56323 1.73842,-17.53811 3.12863,-3.86884 5.85024,-4.66739 18.69988,-5.4868 16.29817,-1.03931 19.52036,-4.79484 4.11392,-4.79484 -13.75194,0 -14.11588,-1.36908 -6.39745,-24.06635 3.72528,-10.95477 6.77323,-20.21975 6.77323,-20.58883 0,-0.36912 -2.24857,-0.39798 -4.99682,-0.0641 -4.443,0.5396 -5.51725,2.30743 -9.69264,15.95034 -8.28167,27.06004 -6.88802,25.3303 -24.81426,30.79813 -14.75464,4.50046 -19.8603,7.33293 -17.49014,9.70314 0.5106,0.51056 7.50849,-0.7005 15.55088,-2.69129 l 14.62254,-3.61959 -2.95151,4.50457 c -4.2793,6.53105 -4.27631,17.83917 0.006,20.97017 4.51071,3.29831 7.30066,1.52443 4.83839,-3.07634 z"
       id="path3218" />
    <path
       style="fill:#ffcc00;stroke-width:1.91794"
       d="m 111.12697,348.526 c -2.36604,-7.45475 8.40313,-20.04045 22.40502,-26.18426 3.69581,-1.62165 4.86479,-3.28375 4.1722,-5.93218 -0.64734,-2.47545 2.84989,-8.73824 10.6886,-19.141 6.40792,-8.50395 11.65078,-15.97869 11.65078,-16.6105 0,-0.63178 -2.37345,-1.12633 -5.27433,-1.09897 -4.49361,0.0422 -6.62227,2.24257 -14.38062,14.864 -15.91993,25.89879 -18.02788,27.28084 -41.609016,27.28084 -11.084734,0 -15.615114,0.76071 -17.409884,2.92327 -1.33435,1.6078 -2.08733,3.18632 -1.6733,3.50784 1.48171,1.15068 35.78522,-2.08971 38.3805,-3.62549 1.45692,-0.86215 -1.45063,2.8638 -6.46124,8.27991 -5.01061,5.4161 -9.1102,10.67691 -9.1102,11.69068 0,4.49936 2.62548,7.91077 6.08826,7.91077 2.89653,0 3.47824,-0.88749 2.53323,-3.86491 z"
       id="path3216" />
    <path
       style="display:inline;fill:#ffcc00;stroke-width:1.91794"
       d="m 89.55941,24.36411 c -2.37344,-0.95401 -4.31535,-3.08479 -4.31535,-4.73507 0,-1.65028 1.94191,-3.83483 4.31535,-4.85455 3.318186,-1.42561 3.476473,-1.74372 0.68506,-1.37664 -8.34555,1.09744 -9.04041,13.05287 -0.74525,12.82239 l 4.37555,-0.12158 z"
       id="path3272" />
    <path
       style="fill:#000000;stroke-width:1.91794"
       d="m -90.833833,139.39149 c -0.866889,-1.40264 -13.695207,-2.09798 -38.706727,-2.09798 h -37.4101 l -9.52949,-8.15123 c -9.25066,-7.91271 -15.85905,-17.35813 -13.67352,-19.54365 0.59078,-0.59078 18.08606,-1.07416 38.87838,-1.07416 31.26397,0 38.2173,-0.4977 40.19185,-2.8769 1.78003,-2.1448 6.54082,-2.87691 18.708333,-2.87691 20.139099,0 25.850691,-3.012745 35.414366,-18.680365 12.32297,-20.188045 12.079296,-17.99989 3.847955,-34.553267 -14.184672,-28.525702 -23.604902,-39.6540289 -46.942844,-55.4545796 -20.02146,-13.5551874 -32.61565,-28.3427404 -39.63018,-46.5320024 -10.27356,-26.640246 -7.10788,-49.567866 10.84759,-78.564076 6.11693,-9.87821 9.03878,-16.86192 9.6303,-23.01807 1.21373,-12.63145 -2.47938,-15.40461 -22.76336,-17.09308 l -15.95798,-1.32836 10.24789,-8.15123 c 5.63634,-4.48317 10.78246,-8.1702 11.43581,-8.19339 0.65335,-0.0231 3.77713,-3.92455 6.94172,-8.66968 10.56872,-15.84719 33.216912,-22.40164 47.909321,-13.86507 15.18127,8.82059 19.733836,25.64371 13.220834,48.85496 -1.7164,6.11694 -4.031522,16.04286 -5.144732,22.05761 -3.041385,16.43287 -1.356076,18.65661 21.424365,28.26927 26.439058,11.15649 38.358799,20.036594 66.579586,49.601225 26.645437,27.914253 39.665915,38.163359 63.750038,50.181086 9.035936,4.5088582 15.62069,8.9475376 15.195597,10.2431214 C 92.52434,1.2482981 80.550486,8.9090142 74.476892,10.129415 c -10.291136,2.06788 -6.389485,4.511081 19.658844,12.310323 6.856624,2.052971 21.313064,4.261355 32.125434,4.907519 15.46168,0.923966 19.65884,1.77526 19.65884,3.98727 0,6.953417 -13.39903,27.330469 -26.59914,40.451579 C 106.4903,84.539901 87.083875,99.076328 83.199725,98.842759 82.357901,98.792114 78.30728,94.059697 74.198371,88.326237 56.804669,64.055625 2.2489207,17.100786 0.53326999,24.924455 0.21287877,26.385562 1.2917178,32.756017 2.9306901,39.08107 6.9486522,54.586894 6.878282,55.260839 -0.80211098,74.824536 -9.7703051,97.668563 -9.7104086,98.140465 2.337838,99.56741 c 5.4189935,0.64179 11.363286,2.53395 13.209569,4.2048 2.915143,2.63822 10.991632,3.01857 61.383214,2.89099 48.833859,-0.12376 57.682019,0.26792 55.852759,2.4721 -1.19545,1.44046 -1.66109,3.13151 -1.0347,3.7579 0.62639,0.62639 -4.13759,6.35023 -10.58662,12.71963 l -11.72551,11.58074 -64.709004,0.84815 c -73.322355,0.96103 -68.069511,0.91689 -96.83445,0.8135 -11.867232,-0.0426 -25.143818,0.53262 -29.503556,1.27837 -5.076181,0.86828 -8.393041,0.60142 -9.223373,-0.7421 z m 11.387113,-5.96289 c -2.366044,-7.45475 8.403131,-20.04045 22.405024,-26.18426 3.695806,-1.62165 4.864788,-3.28375 4.1722,-5.93218 -0.647342,-2.475454 2.849882,-8.738235 10.688601,-19.141 6.40792,-8.503949 11.650772,-15.978685 11.650772,-16.610495 0,-0.63178 -2.373446,-1.126338 -5.274324,-1.098977 -4.49361,0.04225 -6.622271,2.242576 -14.380628,14.864004 -15.919924,25.898788 -18.027871,27.280838 -41.609011,27.280838 -11.084734,0 -15.615114,0.76071 -17.409884,2.92327 -1.33435,1.6078 -2.08733,3.18632 -1.6733,3.50784 1.48171,1.15068 35.785224,-2.08971 38.380497,-3.62549 1.456924,-0.86215 -1.450631,2.8638 -6.461239,8.27991 -5.010608,5.4161 -9.110196,10.67691 -9.110196,11.69068 0,4.49936 2.625481,7.91077 6.088257,7.91077 2.896527,0 3.478237,-0.88749 2.533231,-3.86491 z m 54.675584,-1.87922 c -2.978306,-5.56501 -2.284625,-12.56323 1.738417,-17.53811 3.128633,-3.86884 5.850244,-4.66739 18.6998795,-5.4868 16.2981715,-1.03931 19.5203635,-4.79484 4.11391594,-4.79484 -13.75193144,0 -14.11587744,-1.36908 -6.39744954,-24.066351 3.7252821,-10.954771 6.77323015,-20.219751 6.77323015,-20.588834 0,-0.369113 -2.24857025,-0.397972 -4.99681985,-0.06413 -4.4429947,0.539599 -5.5172492,2.307427 -9.6926342,15.950336 -8.281669,27.060039 -6.888019,25.330299 -24.81426,30.798129 -14.754643,4.50046 -19.860306,7.33293 -17.490139,9.70314 0.510594,0.51056 7.508489,-0.7005 15.550878,-2.69129 l 14.622536,-3.61959 -2.951512,4.50457 c -4.279299,6.53105 -4.276308,17.83917 0.0057,20.97017 4.510716,3.29831 7.300663,1.52443 4.838395,-3.07634 z m -64.059721,-6.81005 4.032173,-8.54311 h -6.921736 c -3.806968,0 -9.85717,0.84185 -13.4449,1.87082 -5.23219,1.50058 -6.95823,1.27576 -8.72166,-1.13587 -1.83783,-2.51336 -7.45523,-3.02695 -34.2394,-3.13037 -17.62248,-0.068 -32.58682,0.42222 -33.25409,1.08951 -0.66727,0.66726 -0.12149,2.52868 1.21286,4.13645 1.9345,2.33092 7.23629,2.92326 26.16545,2.92326 13.05664,0 23.73936,0.77368 23.73936,1.71931 0,0.94561 -9.05997,1.45587 -20.13326,1.13389 -19.73381,-0.57376 -24.40716,0.48407 -19.6351,4.44455 3.45135,2.86435 12.0376,3.56916 46.48113,3.81534 l 30.686982,0.21937 z m 52.546926,0.19629 v -8.4981 l -7.19226,1.06886 c -3.955744,0.58784 -9.103811,2.25974 -11.440144,3.71525 -5.464431,3.40436 -5.664319,3.36948 -6.858561,-1.19733 -1.257513,-4.80872 -5.704017,-3.38855 -10.021542,3.20082 -5.512703,8.41348 -2.975945,9.89991 17.170862,10.06149 l 18.341645,0.14715 z m 111.240307,5.72189 c 19.514999,-0.36764 35.562494,-0.75105 35.661054,-0.85201 0.0986,-0.10099 3.91909,-4.61884 8.49001,-10.03965 l 8.31075,-9.85606 -69.274862,0.93293 c -77.815649,1.04797 -79.083771,1.26781 -79.083771,13.70889 0,3.49191 0.622601,6.97152 1.383581,7.73249 0.76096,0.76097 14.3543344,0.85669 30.207508,0.21277 15.853121,-0.64397 44.79073,-1.47165 64.30573,-1.8393 z m -78.4755701,-3.71174 c 0.439534,-0.41703 13.3136919,-1.38251 28.6092321,-2.14551 35.811073,-1.78641 36.019708,-1.791 45.071497,-0.99044 5.974671,0.52842 4.489739,0.97869 -6.712776,2.03565 -15.597135,1.47154 -68.2714214,2.33698 -66.9679531,1.1003 z M -26.927376,96.82536 c 3.770183,-4.046815 11.740742,-29.845392 11.740742,-38.001625 0,-5.944853 -15.056737,-27.016587 -19.304602,-27.016587 -0.729047,0 -0.138272,5.825731 1.312635,12.946068 1.450997,7.120338 3.165727,15.632588 3.810517,18.916064 1.013035,5.158829 -0.282387,7.866116 -9.533677,19.924299 -5.888313,7.674861 -10.246421,14.697894 -9.684714,15.606756 0.561724,0.908895 4.820579,1.652515 9.464112,1.652515 6.106865,0 9.480955,-1.114324 12.194987,-4.02749 z M 88.251718,91.384236 C 90.47098,89.979857 89.373741,87.540182 82.537527,78.679168 77.884015,72.647349 69.430652,63.733202 63.752213,58.869915 58.073833,54.006629 50.719897,47.573302 47.410169,44.57368 c -5.466268,-4.954149 -5.141897,-4.866284 3.54018,0.958968 10.410407,6.984853 32.637458,28.132346 38.598913,36.72416 3.956852,5.702743 10.340282,5.629112 10.340282,-0.119272 0,-5.802655 -29.253529,-31.890032 -53.222725,-47.462354 -4.483176,-2.912626 -8.151229,-5.663456 -8.151229,-6.112972 0,-0.998346 1.882425,0.07702 15.343489,8.763769 15.868613,10.24061 35.118878,25.890968 42.607219,34.639394 3.667452,4.284609 7.558492,7.790207 8.646712,7.790207 2.99651,0 6.24304,-4.669995 4.73599,-6.812449 C 106.95465,68.828498 83.891231,50.866488 73.032836,44.270346 66.706733,40.427461 61.530823,36.877841 61.530823,36.382325 c 0,-1.957704 19.125928,10.162214 35.481817,22.484503 l 17.26142,13.004476 3.54147,-4.170642 c 3.46272,-4.077921 3.44776,-4.235432 -0.67316,-7.085964 -2.31804,-1.603455 -16.85779,-9.59049 -32.310512,-17.74891 C 69.379137,34.707307 57.275522,28.018505 57.934993,28.001783 c 2.513904,-0.06383 30.238689,13.281228 47.450097,22.839682 17.3563,9.638917 23.2735,10.959656 23.2735,5.1947 0,-1.668725 -5.65006,-4.803202 -14.4305,-8.005615 -18.873386,-6.883503 -17.416653,-8.049878 1.92987,-1.545198 14.6387,4.921844 15.09502,4.958465 17.69712,1.420262 2.9408,-3.998717 2.85584,-4.039533 -16.70411,-8.024075 -7.90567,-1.610437 -7.34692,-1.741486 6.65116,-1.559851 13.11056,0.170216 15.37876,-0.278701 15.96361,-3.158122 0.5859,-2.884636 -0.88812,-3.365768 -10.48706,-3.423306 C 112.31498,31.638669 89.790023,27.006764 77.421613,21.076715 66.70077,15.936614 65.239902,15.752492 34.208865,15.630742 16.544614,15.561516 2.0881797,15.952188 2.0834238,16.499048 2.079528,17.04593 8.814822,22.043835 17.052657,27.60546 c 16.558681,11.179379 50.717901,43.713149 59.88171,57.032286 6.223343,9.045286 6.975833,9.493873 11.317351,6.74652 z m 8.071125,-56.023512 c -3.543987,-1.019863 -6.071497,-2.226454 -5.616646,-2.681275 0.45482,-0.45485 4.649077,0.37211 9.320513,1.837653 9.53798,2.99228 6.3142,3.72655 -3.703867,0.843622 z m -139.142468,18.982173 -1.086664,-6.233292 2.857725,6.233292 c 3.452573,7.530866 5.667462,8.173614 3.900084,1.131792 -0.704227,-2.805791 -1.662793,-10.291855 -2.130135,-16.635638 -0.490128,-6.652811 -2.108387,-12.924911 -3.823792,-14.820432 -3.347161,-3.698559 -25.570001,-14.1644998 -27.012769,-12.72175 -0.513431,0.513431 2.564629,5.554052 6.84011,11.201367 4.275484,5.647362 10.58718,16.524217 14.025983,24.170849 3.438802,7.646601 6.53671,13.903867 6.884258,13.905036 0.34753,0.0011 0.142886,-2.802914 -0.4548,-6.231224 z m 36.1874679,-5.514486 c -0.8705512,-2.742918 -0.5991842,-3.646836 0.8297351,-2.763716 1.1678702,0.721773 2.1234069,2.55601 2.1234069,4.076064 0,3.392229 3.61996949,3.665595 4.8501517,0.366266 C 1.6627815,49.188444 -0.40463971,40.370673 -3.4231055,30.912011 L -8.9112615,13.714406 -25.787526,9.2628764 c -29.469012,-7.773263 -71.66173,-36.8849224 -81.549624,-56.2667994 -4.94401,-9.691061 -4.78393,-22.723838 0.41729,-33.972991 2.28997,-4.952747 4.77993,-12.025729 5.53325,-15.717756 l 1.36966,-6.71278 0.220566,7.268673 c 0.121309,3.997766 -1.505576,10.65218 -3.615306,14.787595 -4.21232,8.256811 -4.95352,19.785812 -1.81072,28.164697 2.96519,7.905405 19.98364,24.562872 35.374598,34.624269 14.741643,9.6369181 32.401749,19.6822791 34.602159,19.6822791 0.771873,0 -4.108621,-5.2239394 -10.845566,-11.6087281 l -12.248974,-11.608748 15.046304,11.653763 c 16.907548,13.0953379 25.095199,17.8285374 29.327412,16.9538806 1.843578,-0.381016 -0.446783,-3.1407731 -6.362045,-7.6659515 -5.083451,-3.8888461 -13.557986,-11.5974721 -18.83231,-17.1303131 l -9.589681,-10.05967 11.907105,10.528855 C -18.46588,-1.5665428 0.90564027,11.137386 6.1712588,10.392346 10.241287,9.8164647 9.723684,9.0745681 1.1158281,3.1460569 -10.480052,-4.8404207 -32.607476,-24.292991 -31.432644,-25.467823 c 0.463874,-0.463889 5.112529,3.149847 10.330352,8.030494 11.2195029,10.4945447 34.442904,25.8775037 42.597578,28.216235 3.172087,0.909734 5.494348,0.963877 5.160567,0.120261 C 26.322102,10.055598 17.202526,2.2708127 6.3901523,-6.40035 -4.4222123,-15.07151 -13.268695,-22.642371 -13.268695,-23.224464 c 0,-0.582112 1.078839,-0.19572 2.397423,0.858642 9.5798416,7.660159 36.612929,27.4115795 42.480794,31.0381299 5.270818,3.2575181 8.180537,3.9728131 11.015396,2.7078561 C 46.103215,9.8281131 45.67159,9.215869 38.18112,5.0768101 28.189483,-0.4442745 8.699656,-15.629072 2.0747961,-23.054131 c -4.4021637,-4.933872 -4.1665633,-4.86521 2.8769041,0.838366 C 32.126975,-0.21005555 50.892991,11.126286 57.350292,9.4376603 60.978967,8.4887405 59.544321,7.1097444 47.665344,0.12832531 39.995817,-4.3791511 28.542323,-12.564402 22.213134,-18.061111 3.3585277,-34.435777 3.8589741,-34.810198 24.13107,-19.496092 42.662168,-5.497155 64.177845,6.8738773 69.993656,6.8738773 c 6.688263,0 4.353355,-4.0766301 -5.035481,-8.7916062 C 49.20266,-9.8300213 33.047135,-22.185614 18.377262,-37.542468 6.5081053,-49.967416 7.9393441,-48.972273 27.007974,-31.541594 44.343299,-15.695301 73.787094,1.8487709 81.20582,0.75217297 88.676721,-0.35213865 86.569179,-3.8842846 75.768202,-8.3610351 59.224865,-15.217872 37.814315,-32.419361 13.86229,-58.096995 c -25.571302,-27.413576 -38.148476,-36.846612 -65.48971,-49.118115 -25.396928,-11.39885 -29.611764,-15.62112 -27.967421,-28.01679 0.662838,-4.99681 2.899266,-14.12113 4.969813,-20.27627 6.322629,-18.79537 6.885102,-29.66299 2.052017,-39.6468 -2.296767,-4.74451 -6.075485,-9.85388 -8.397125,-11.35417 -10.723777,-6.92991 -27.042554,-5.37588 -37.697844,3.58996 -6.87062,5.78124 -7.13668,7.33794 -2.00514,11.7317 4.83238,4.13762 4.79756,5.28401 -0.38148,12.5573 -2.91648,4.09581 -3.49751,6.16267 -1.88369,6.70061 11.32146,3.77382 10.67347,20.44726 -1.58302,40.73244 -8.68743,14.37818 -17.24911,39.733346 -17.24911,51.082711 0,8.141156 5.78277,25.605708 12.38823,37.413695 2.7452,4.907345 11.53743,15.140645 19.53827,22.740677 12.544206,11.915753 18.279315,15.6048821 41.656078,26.7953498 32.312449,15.4679922 41.775087,22.0843922 49.609742,34.6876902 6.458131,10.38898 8.090795,11.7173 6.327538,5.14804 -0.93904,-3.498585 -0.588902,-3.317071 1.849948,0.958968 3.5785033,6.274198 5.5816526,6.911132 3.7684569,1.19829 z M -111.66185,-31.964331 c -6.38044,-8.628102 -7.59838,-11.028132 -5.59645,-11.028132 0.9478,0 2.71171,1.94191 3.9198,4.315356 1.20809,2.373446 3.60958,6.257266 5.33663,8.630712 1.72706,2.373446 2.64722,4.315356 2.04481,4.315356 -0.60241,0 -3.16957,-2.804981 -5.70479,-6.233292 z m 103.9023091,-0.958968 c -2.3856641,-3.041961 -2.3178261,-3.109799 0.7241377,-0.724135 1.8460135,1.447754 3.3563881,2.958129 3.3563881,3.356388 0,1.578537 -1.5749911,0.562549 -4.0805258,-2.632253 z m -63.0472421,-8.335734 c -2.215273,-1.573684 -1.663924,-1.779056 2.39742,-0.893048 4.154597,0.90636 5.274324,0.450676 5.274324,-2.146401 0,-2.420933 0.567155,-2.729873 2.134414,-1.162614 4.826966,4.826966 -3.751714,8.503035 -9.806158,4.202063 z m 16.265365,-0.658023 c -2.089322,-1.579249 -2.770881,-2.898789 -1.514555,-2.932353 1.256323,-0.03356 2.81764,0.802081 3.469585,1.856946 1.90033,3.074778 6.344416,2.213355 7.420992,-1.438452 0.776459,-2.633785 0.905209,-2.535299 0.598091,0.457466 -0.495844,4.831779 -5.057906,5.772355 -9.974113,2.056393 z m 13.403439,-3.089144 c -0.974809,-1.577272 -0.112768,-1.830841 2.935384,-0.863398 2.791055,0.885858 4.959992,0.450313 6.140002,-1.232981 1.47712,-2.107102 1.676795,-2.054898 1.048767,0.274234 -0.958507,3.554781 -8.243041,4.865861 -10.124153,1.822136 z m 16.841148,-3.092346 c -1.318581,-0.532053 -2.39742,-1.931149 -2.39742,-3.10907 0,-1.488183 0.702291,-1.439411 2.301523,0.159758 3.239991,3.239991 5.370221,2.859586 5.370221,-0.958968 0,-2.39412 0.567155,-2.693337 2.134415,-1.126077 4.098917,4.098917 -1.052255,7.599189 -7.408739,5.034294 z m -106.846119,-8.779945 c -1.43711,-3.417876 -2.1005,-7.043411 -1.47421,-8.05677 0.62629,-1.01336 1.4799,-0.59038 1.89692,0.939962 0.41701,1.530339 1.50871,5.155892 2.42599,8.056767 2.3033,7.28415 0.33639,6.635139 -2.8487,-0.939959 z m 11.07287,-0.977974 c -0.65698,-1.846013 -1.50704,-3.944065 -1.88903,-4.662311 -0.38198,-0.718267 0.0859,-1.788304 1.03989,-2.377857 0.95393,-0.589555 2.11313,1.508493 2.57602,4.662311 0.93577,6.375852 0.10372,7.521567 -1.72688,2.377857 z m 108.719321,1.498636 c 0,-1.021741 1.3817168,-1.32752 3.0704595,-0.679488 1.6887637,0.648034 3.8332259,-0.02637 4.7654777,-1.498637 1.35673,-2.142658 1.7008647,-2.00706 1.7243774,0.679489 0.020078,2.309348 -1.466397,3.356385 -4.7654748,3.356385 -2.6371621,0 -4.7948398,-0.835989 -4.7948398,-1.857749 z m -76.717449,-1.498636 c 0,-0.791149 2.075264,-1.438452 4.611695,-1.438452 2.536435,0 4.211635,0.647303 3.722678,1.438452 -0.48896,0.791146 -2.564223,1.438449 -4.611698,1.438449 -2.047472,0 -3.722675,-0.647303 -3.722675,-1.438449 z m 17.261425,-4.315356 c -2.23382,-1.443613 -1.672611,-1.865768 2.510617,-1.888574 3.579138,-0.01948 4.928158,-0.772601 4.019017,-2.24364 -0.867599,-1.403795 -0.523923,-1.692291 0.938905,-0.788215 1.766841,1.091959 1.781247,2.060037 0.06155,4.132214 -2.636395,3.176582 -3.667381,3.284505 -7.530104,0.788215 z m 15.343491,-5.693624 c 0,-1.021742 1.381717,-1.327517 3.070463,-0.679486 1.688761,0.648032 3.799527,-0.0014 4.690561,-1.443094 0.891052,-1.441751 2.18497,-2.056468 2.875388,-1.36605 0.690418,0.690418 0.686411,2.175803 -0.0096,3.300846 -1.578749,2.55446 -10.627514,2.714356 -10.627514,0.187778 z m 20.011343,-6.01946 c -0.89397,-1.44649 0.06347,-1.686768 3.003162,-0.753731 2.810046,0.891879 4.890794,0.461743 5.964607,-1.232984 1.284903,-2.027834 1.655622,-1.861357 1.678503,0.75373 0.03338,3.816385 -8.442929,4.798062 -10.646272,1.232985 z m -89.746241,-4.033824 c -0.647,-2.415275 -1.08048,-7.41217 -0.96328,-11.104197 0.1627,-5.125402 0.57409,-4.22017 1.73971,3.828087 1.60421,11.076635 1.21606,14.714174 -0.77643,7.27611 z m -11.57219,-2.630354 c -1.65107,-4.302602 -1.4443,-12.309715 0.31787,-12.309715 0.81512,0 1.48204,3.452285 1.48204,7.671744 0,8.580576 -0.14429,8.952425 -1.79991,4.637971 z m 7.80417,-24.776297 c 0.62644,-3.16459 1.85934,-7.04841 2.73978,-8.63071 2.87365,-5.16446 1.88348,2.15744 -1.16717,8.63071 l -2.71159,5.753806 z m 19.6724,-85.58789 c -3.39317,-6.34019 1.08873,-13.19379 8.60363,-13.15644 8.483584,0.0422 11.055938,2.2796 9.90675,8.61693 -1.155443,6.37196 -3.97103,8.54542 -11.12234,8.58575 -3.36602,0.0189 -5.97798,-1.41151 -7.38804,-4.04624 z m 8.27953,0.17998 c -2.37344,-0.95401 -4.31535,-3.08479 -4.31535,-4.73507 0,-1.65028 1.94191,-3.83483 4.31535,-4.85455 3.318186,-1.42561 3.476473,-1.74372 0.68506,-1.37664 -8.34555,1.09744 -9.04041,13.05287 -0.74525,12.82239 l 4.37555,-0.12158 z m -24.72709,13.09783 c 3.14549,-4.99503 0.65879,-5.7354 -7.58334,-2.25778 -6.60801,2.78812 -7.03652,3.34068 -3.65087,4.70772 5.31752,2.14708 8.8204,1.38318 11.23421,-2.44994 z m -4.04195,-5.9655 c 3.95574,-1.23899 7.19226,-2.90565 7.19226,-3.70367 0,-2.96911 -6.95246,-1.27723 -14.38452,3.50047 -4.21946,2.71247 -5.9456,4.37471 -3.83587,3.69385 2.10973,-0.68086 7.07239,-2.25165 11.02813,-3.49065 z"
       id="path3189"
       transform="translate(190.57369,215.0974)" />
  </g>
</svg>
